<svg xmlns="http://www.w3.org/2000/svg" viewBox="0 0 640 480" role="img" aria-label="Saudi Arabia flag">
  <rect width="640" height="480" fill="#006c35"/>
  <g fill="#fff">
    <text
      x="320"
      y="190"
      font-size="54"
      font-family="'Noto Naskh Arabic', 'Amiri', 'Scheherazade New', serif"
      text-anchor="middle"
      direction="rtl"
      unicode-bidi="bidi-override"
      lengthAdjust="spacingAndGlyphs"
      textLength="430"
    >لا إله إلا الله محمد رسول الله</text>
    <path d="M186 314c10 0 18 8 18 18 0 16 15 24 38 24h154c28 0 53-9 75-22l55-34c10-6 22 1 22 12 0 5-3 10-7 13l-54 34c-28 18-60 27-94 27H242c-39 0-68-19-68-50 0-12 9-22 12-22z"/>
    <rect x="174" y="306" width="290" height="18" rx="9"/>
    <circle cx="170" cy="315" r="10"/>
  </g>
</svg>
