<svg xmlns="http://www.w3.org/2000/svg" viewBox="0 0 640 480" role="img" aria-label="South Africa flag">
  <rect width="640" height="240" fill="#de3831"/>
  <rect y="240" width="640" height="240" fill="#002395"/>
  <polygon points="0,0 250,240 0,480" fill="#000"/>
  <polygon points="0,40 220,240 0,440 0,380 150,240 0,100" fill="#ffb612"/>
  <polygon points="0,70 180,240 0,410 0,330 95,240 0,150" fill="#007a4d"/>
  <polygon points="640,120 255,120 180,190 640,190" fill="#fff"/>
  <polygon points="640,360 255,360 180,290 640,290" fill="#fff"/>
  <polygon points="640,140 270,140 175,220 270,300 640,300 640,260 325,260 250,220 325,180 640,180" fill="#007a4d"/>
</svg>
